<svg xmlns="http://www.w3.org/2000/svg" version="1.1" xmlns:xlink="http://www.w3.org/1999/xlink" xmlns:svgjs="http://svgjs.com/svgjs" width="68" height="68"><svg viewBox="0 0 68 68" xmlns="http://www.w3.org/2000/svg"><circle cx="34" cy="34" r="34" fill="#fff" fill-rule="evenodd" paint-order="markers stroke fill"></circle><g fill="#020000" fill-rule="evenodd" transform="translate(4 4) scale(.88385)"><circle cx="51.9" cy="44.6" r="2.6"></circle><circle cx="57" cy="36.5" r="2.5"></circle><circle cx="58.1" cy="26.8" r="2.4"></circle><circle cx="54.5" cy="16.8" r="2.2"></circle><circle cx="46.5" cy="7.9" r="2.1"></circle></g><circle cx="34" cy="34" fill="none" stroke="#000" stroke-width="3.8" r="28.1"></circle><g fill-rule="evenodd" transform="translate(4 4) scale(.88385)"><g fill="#020000"><circle cx="33.9" cy="33.9" r="3.2"></circle><circle cx="28.6" cy="41.4" r="3"></circle><circle cx="34.1" cy="48.9" r="2.9"></circle><circle cx="43.4" cy="49.2" r="2.8"></circle><circle cx="51.9" cy="44.6" r="2.6"></circle><circle cx="56.9" cy="36.5" r="2.5"></circle><circle cx="58.1" cy="26.8" r="2.4"></circle><circle cx="54.4" cy="16.8" r="2.2"></circle><circle cx="46.4" cy="7.9" r="2.1"></circle></g><circle cx="33.8" cy="33.9" r="3.2"></circle><g fill="#020000"><circle cx="28.5" cy="41.4" r="3"></circle><circle cx="34.1" cy="48.9" r="2.9"></circle><circle cx="43.3" cy="49.3" r="2.8"></circle></g><g transform="rotate(-119)"><circle cx="-28" cy="23.9" r="2.6"></circle><circle cx="-23" cy="15.8" r="2.5"></circle><circle cx="-21.8" cy="6.1" r="2.4"></circle><circle cx="-25.5" cy="-3.9" r="2.2"></circle><circle cx="-33.5" cy="-12.9" r="2.1"></circle><circle cx="-51.4" cy="20.7" r="3"></circle><circle cx="-45.8" cy="28.1" r="2.9"></circle><circle cx="-36.6" cy="28.5" r="2.8"></circle></g><g transform="rotate(115)"><circle cx="34.6" cy="-34.1" r="2.6"></circle><circle cx="39.7" cy="-42.3" r="2.5"></circle><circle cx="40.8" cy="-51.9" r="2.4"></circle><circle cx="37.2" cy="-61.9" r="2.2"></circle><circle cx="29.1" cy="-70.9" r="2.1"></circle><circle cx="11.2" cy="-37.3" r="3"></circle><circle cx="16.8" cy="-29.9" r="2.9"></circle><circle cx="26.1" cy="-29.5" r="2.8"></circle></g></g></svg><style>@media (prefers-color-scheme: light) { :root { filter: none; } }
@media (prefers-color-scheme: dark) { :root { filter: invert(100%); } }
</style></svg>