<svg viewBox="0 0 68 68" xmlns="http://www.w3.org/2000/svg"><circle cx="34" cy="34" r="34" fill="#fff" fill-rule="evenodd" paint-order="markers stroke fill"/><g fill="#020000" fill-rule="evenodd" transform="translate(4 4) scale(.88385)"><circle cx="51.9" cy="44.6" r="2.6"/><circle cx="57" cy="36.5" r="2.5"/><circle cx="58.1" cy="26.8" r="2.4"/><circle cx="54.5" cy="16.8" r="2.2"/><circle cx="46.5" cy="7.9" r="2.1"/></g><circle cx="34" cy="34" fill="none" stroke="#000" stroke-width="3.8" r="28.1"/><g fill-rule="evenodd" transform="translate(4 4) scale(.88385)"><g fill="#020000"><circle cx="33.9" cy="33.9" r="3.2"/><circle cx="28.6" cy="41.4" r="3"/><circle cx="34.1" cy="48.9" r="2.9"/><circle cx="43.4" cy="49.2" r="2.8"/><circle cx="51.9" cy="44.6" r="2.6"/><circle cx="56.9" cy="36.5" r="2.5"/><circle cx="58.1" cy="26.8" r="2.4"/><circle cx="54.4" cy="16.8" r="2.2"/><circle cx="46.4" cy="7.9" r="2.1"/></g><circle cx="33.8" cy="33.9" r="3.2"/><g fill="#020000"><circle cx="28.5" cy="41.4" r="3"/><circle cx="34.1" cy="48.9" r="2.9"/><circle cx="43.3" cy="49.3" r="2.8"/></g><g transform="rotate(-119)"><circle cx="-28" cy="23.9" r="2.6"/><circle cx="-23" cy="15.8" r="2.5"/><circle cx="-21.8" cy="6.1" r="2.4"/><circle cx="-25.5" cy="-3.9" r="2.2"/><circle cx="-33.5" cy="-12.9" r="2.1"/><circle cx="-51.4" cy="20.7" r="3"/><circle cx="-45.8" cy="28.1" r="2.9"/><circle cx="-36.6" cy="28.5" r="2.8"/></g><g transform="rotate(115)"><circle cx="34.6" cy="-34.1" r="2.6"/><circle cx="39.7" cy="-42.3" r="2.5"/><circle cx="40.8" cy="-51.9" r="2.4"/><circle cx="37.2" cy="-61.9" r="2.2"/><circle cx="29.1" cy="-70.9" r="2.1"/><circle cx="11.2" cy="-37.3" r="3"/><circle cx="16.8" cy="-29.9" r="2.9"/><circle cx="26.1" cy="-29.5" r="2.8"/></g></g></svg>