<?xml version="1.0" standalone="no"?>
<!DOCTYPE svg PUBLIC "-//W3C//DTD SVG 20010904//EN"
 "http://www.w3.org/TR/2001/REC-SVG-20010904/DTD/svg10.dtd">
<svg version="1.0" xmlns="http://www.w3.org/2000/svg"
 width="700.000000pt" height="700.000000pt" viewBox="0 0 700.000000 700.000000"
 preserveAspectRatio="xMidYMid meet">
<metadata>
Created by potrace 1.14, written by Peter Selinger 2001-2017
</metadata>
<g transform="translate(0.000000,700.000000) scale(0.100000,-0.100000)"
fill="#000000" stroke="none">
<path d="M3290 6993 c-520 -36 -956 -156 -1395 -382 -474 -244 -873 -581
-1194 -1008 -606 -807 -829 -1809 -625 -2811 141 -692 526 -1367 1054 -1850
391 -357 878 -634 1365 -775 620 -180 1237 -192 1860 -36 1222 307 2207 1292
2514 2514 78 311 105 534 105 865 0 559 -111 1041 -354 1535 -434 884 -1212
1539 -2154 1814 -369 108 -819 159 -1176 134z m576 -448 c214 -27 449 -82 646
-151 57 -20 105 -38 107 -40 2 -2 -9 -23 -24 -46 -34 -50 -44 -134 -25 -193
41 -125 200 -184 321 -119 53 29 95 82 105 132 4 17 10 32 15 32 18 0 197
-116 310 -201 451 -340 787 -773 999 -1290 329 -799 299 -1716 -80 -2494 -149
-305 -328 -559 -574 -813 l-100 -103 -17 33 c-58 112 -182 157 -294 104 -59
-27 -77 -46 -104 -106 -40 -87 -18 -189 55 -256 l37 -33 -85 -54 c-274 -177
-577 -312 -878 -391 -1034 -272 -2122 4 -2894 735 -469 443 -782 1021 -906
1672 -30 160 -31 154 39 159 172 12 265 190 175 334 -21 35 -44 56 -84 77 -49
26 -62 28 -119 24 l-63 -5 6 107 c43 675 263 1254 675 1771 97 122 339 364
461 461 464 370 1028 604 1585 658 61 6 128 13 150 15 83 8 445 -4 561 -19z"/>
<path d="M2490 5965 c-57 -18 -124 -75 -152 -128 -11 -23 -23 -69 -26 -104 -4
-56 -1 -70 27 -127 49 -100 122 -145 236 -145 75 -1 130 23 183 79 128 131 76
356 -95 420 -62 23 -109 24 -173 5z"/>
<path d="M3435 5916 c-87 -40 -144 -121 -152 -217 -11 -112 41 -210 138 -264
46 -26 64 -30 129 -30 65 0 82 4 130 31 150 85 185 282 74 412 -76 89 -212
119 -319 68z"/>
<path d="M1552 5577 c-46 -14 -121 -84 -143 -132 -45 -98 -9 -236 79 -302 190
-143 455 40 388 268 -31 107 -127 180 -235 178 -31 -1 -71 -6 -89 -12z"/>
<path d="M5520 5487 c-49 -16 -123 -93 -138 -143 -24 -82 -4 -172 51 -233 35
-38 115 -71 172 -71 57 0 137 33 172 71 85 93 82 230 -7 319 -65 66 -157 86
-250 57z"/>
<path d="M4320 5411 c-83 -26 -150 -82 -191 -161 -37 -70 -34 -177 6 -255 34
-66 101 -125 165 -144 65 -19 159 -14 215 13 106 50 164 144 165 263 0 61 -5
80 -33 134 -38 74 -94 121 -169 144 -55 16 -117 18 -158 6z"/>
<path d="M821 4714 c-88 -44 -140 -139 -127 -231 25 -185 236 -266 377 -144
103 87 107 234 11 330 -76 75 -168 91 -261 45z"/>
<path d="M2950 4639 c-102 -11 -193 -77 -240 -174 -33 -68 -35 -188 -3 -256
66 -144 230 -220 375 -174 218 68 293 336 142 504 -71 79 -163 113 -274 100z"/>
<path d="M4717 4565 c-243 -89 -272 -423 -48 -548 43 -25 69 -31 131 -35 67
-4 85 -1 132 20 75 34 122 79 155 146 38 77 39 182 3 257 -67 138 -236 210
-373 160z"/>
<path d="M5880 4469 c-99 -45 -144 -116 -145 -229 0 -64 4 -82 28 -123 105
-178 361 -165 446 23 43 94 22 199 -54 275 -76 76 -181 97 -275 54z"/>
<path d="M1934 4406 c-105 -49 -164 -136 -172 -252 -8 -128 50 -233 162 -292
43 -22 64 -27 131 -27 68 0 89 4 137 28 192 94 225 353 63 495 -57 50 -119 72
-204 72 -48 0 -80 -7 -117 -24z"/>
<path d="M3368 3825 c-95 -36 -172 -116 -205 -211 -22 -64 -14 -183 16 -246
30 -62 87 -121 153 -155 48 -25 63 -28 153 -28 90 0 105 3 152 27 64 34 117
87 151 153 24 44 27 62 27 145 0 85 -3 101 -28 148 -34 65 -93 123 -155 153
-60 28 -206 37 -264 14z"/>
<path d="M4350 3707 c-95 -27 -185 -109 -214 -194 -21 -61 -20 -156 1 -217 24
-67 91 -139 161 -173 119 -58 273 -27 361 74 171 193 51 497 -204 518 -35 3
-79 -1 -105 -8z"/>
<path d="M1519 3556 c-161 -57 -238 -244 -165 -399 104 -218 411 -220 523 -3
36 68 38 178 7 247 -47 102 -152 169 -264 168 -36 0 -81 -6 -101 -13z"/>
<path d="M5742 3474 c-116 -58 -169 -186 -130 -316 14 -49 78 -123 128 -148
145 -74 331 3 376 156 30 105 3 198 -80 271 -79 69 -199 85 -294 37z"/>
<path d="M2824 3029 c-71 -27 -137 -88 -171 -157 -37 -76 -39 -181 -4 -260 30
-66 113 -144 177 -166 60 -20 167 -21 227 0 56 19 129 81 162 139 98 167 8
395 -178 450 -69 20 -151 18 -213 -6z"/>
<path d="M5259 2666 c-90 -32 -156 -102 -180 -190 -35 -129 55 -291 179 -326
183 -50 351 74 352 260 0 184 -182 317 -351 256z"/>
<path d="M1589 2544 c-105 -32 -182 -142 -181 -259 0 -73 20 -123 73 -180 102
-111 280 -114 387 -7 103 103 105 260 7 370 -74 82 -177 110 -286 76z"/>
<path d="M3413 2252 c-67 -24 -118 -64 -154 -121 -40 -62 -52 -113 -47 -192
21 -292 417 -377 561 -120 25 43 31 69 35 131 4 68 1 84 -23 139 -64 142 -229
214 -372 163z"/>
<path d="M4405 2221 c-141 -37 -235 -154 -235 -296 0 -165 122 -288 285 -289
118 -1 217 62 277 176 34 65 32 184 -4 254 -31 59 -84 109 -143 135 -49 21
-137 31 -180 20z"/>
<path d="M2149 1707 c-122 -35 -197 -143 -187 -272 12 -140 118 -237 260 -237
219 0 337 256 197 425 -61 74 -177 110 -270 84z"/>
<path d="M3015 1181 c-163 -40 -244 -215 -167 -362 107 -207 416 -160 464 71
35 170 -130 331 -297 291z"/>
<path d="M4105 1061 c-110 -28 -175 -114 -175 -229 0 -123 98 -221 223 -222
32 0 72 6 90 13 182 77 190 328 15 418 -44 23 -110 31 -153 20z"/>
</g>
</svg>
