<?xml version="1.0" standalone="no"?>
<!DOCTYPE svg PUBLIC "-//W3C//DTD SVG 20010904//EN"
 "http://www.w3.org/TR/2001/REC-SVG-20010904/DTD/svg10.dtd">
<svg version="1.0" xmlns="http://www.w3.org/2000/svg"
 width="700.000000pt" height="700.000000pt" viewBox="0 0 700.000000 700.000000"
 preserveAspectRatio="xMidYMid meet">
<metadata>
Created by potrace 1.14, written by Peter Selinger 2001-2017
</metadata>
<g transform="translate(0.000000,700.000000) scale(0.100000,-0.100000)"
fill="#000000" stroke="none">
<path d="M3115 6975 c-416 -46 -808 -161 -1180 -348 -355 -177 -616 -367 -906
-656 -289 -290 -479 -551 -656 -906 -190 -378 -303 -766 -348 -1192 -19 -180
-19 -547 0 -727 83 -785 418 -1497 970 -2065 585 -601 1357 -968 2195 -1042
192 -17 605 -6 780 20 676 101 1249 357 1763 786 701 586 1146 1444 1228 2365
15 173 6 604 -16 755 -59 410 -156 727 -330 1080 -185 375 -402 674 -696 960
-283 275 -565 472 -924 646 -361 175 -737 282 -1139 324 -178 18 -570 18 -741
0z m810 -433 c196 -31 352 -68 538 -129 92 -30 167 -57 167 -60 0 -2 -11 -19
-24 -36 -126 -169 36 -394 241 -337 62 18 127 80 144 140 7 25 14 46 15 48 5
7 212 -128 319 -208 652 -489 1071 -1195 1196 -2015 29 -190 36 -542 15 -744
-65 -611 -299 -1172 -682 -1637 -71 -86 -282 -304 -294 -304 -4 0 -11 11 -14
24 -14 56 -87 114 -164 131 -97 21 -217 -60 -242 -163 -19 -80 0 -143 61 -204
l47 -47 -91 -59 c-650 -419 -1415 -577 -2177 -451 -831 138 -1578 625 -2046
1334 -255 387 -397 763 -478 1266 l-6 36 57 0 c125 0 216 89 217 213 1 136
-127 241 -258 210 l-39 -9 6 137 c25 532 202 1067 502 1518 515 775 1318 1261
2255 1363 147 16 586 6 735 -17z"/>
<path d="M2523 5969 c-207 -37 -281 -307 -121 -443 107 -92 249 -86 350 15
175 175 17 471 -229 428z"/>
<path d="M3467 5926 c-88 -33 -146 -94 -173 -182 -18 -60 -18 -88 1 -151 32
-107 137 -185 250 -186 152 -1 269 113 268 263 0 37 -7 81 -15 101 -22 51 -84
116 -132 141 -51 26 -148 33 -199 14z"/>
<path d="M1562 5576 c-59 -19 -107 -58 -139 -114 -23 -39 -28 -59 -28 -117 0
-79 17 -123 68 -175 45 -46 108 -72 176 -72 139 0 241 104 241 245 0 68 -16
110 -60 161 -63 72 -168 101 -258 72z"/>
<path d="M5523 5484 c-61 -22 -120 -85 -139 -150 -13 -45 -13 -64 -4 -111 10
-47 20 -65 64 -108 66 -66 127 -85 214 -65 46 10 65 21 108 64 42 43 54 62 64
108 39 175 -134 323 -307 262z"/>
<path d="M4343 5409 c-192 -35 -293 -242 -204 -418 11 -21 41 -57 66 -79 138
-121 351 -83 439 78 114 209 -68 461 -301 419z"/>
<path d="M875 4731 c-108 -27 -175 -112 -175 -221 0 -75 23 -124 81 -173 117
-101 302 -49 353 98 20 60 20 78 1 142 -32 107 -155 180 -260 154z"/>
<path d="M2899 4627 c-177 -67 -261 -256 -186 -419 107 -235 435 -243 555 -14
36 68 39 196 5 267 -27 60 -86 119 -148 149 -59 28 -172 37 -226 17z"/>
<path d="M4747 4570 c-89 -23 -158 -80 -199 -165 -33 -70 -38 -154 -12 -228
20 -60 84 -131 148 -165 70 -37 188 -38 256 -3 58 30 116 86 142 136 29 56 36
167 14 233 -45 135 -211 226 -349 192z"/>
<path d="M5893 4474 c-51 -18 -112 -75 -138 -129 -26 -53 -26 -157 -1 -205 70
-134 219 -184 344 -116 91 51 139 141 129 243 -17 161 -179 261 -334 207z"/>
<path d="M1967 4416 c-210 -78 -274 -338 -122 -491 118 -118 303 -119 422 -3
143 140 106 387 -73 474 -67 33 -169 42 -227 20z"/>
<path d="M3372 3822 c-141 -51 -231 -190 -220 -337 10 -117 77 -216 185 -271
51 -26 68 -29 148 -29 80 0 97 3 148 29 70 36 120 89 156 165 35 76 36 192 2
263 -34 70 -95 133 -157 164 -75 37 -185 43 -262 16z"/>
<path d="M4329 3697 c-216 -81 -278 -348 -118 -508 57 -57 112 -81 195 -87 97
-6 158 15 228 79 70 64 100 130 100 224 0 117 -64 223 -167 277 -53 27 -183
35 -238 15z"/>
<path d="M1524 3552 c-111 -39 -182 -131 -192 -247 -21 -262 300 -413 485
-228 56 56 77 105 81 194 3 60 0 86 -16 121 -61 139 -219 210 -358 160z"/>
<path d="M5760 3479 c-160 -72 -209 -269 -100 -401 17 -20 56 -49 88 -65 107
-53 227 -30 307 59 49 54 65 95 65 171 0 148 -112 257 -264 257 -29 0 -70 -9
-96 -21z"/>
<path d="M2843 3032 c-140 -50 -213 -151 -213 -295 0 -62 5 -83 31 -135 54
-108 157 -172 279 -172 214 0 363 210 294 414 -22 65 -100 148 -166 176 -72
31 -159 36 -225 12z"/>
<path d="M5259 2665 c-60 -19 -131 -83 -160 -143 -17 -34 -23 -64 -23 -112 1
-77 18 -123 70 -180 155 -172 441 -80 461 150 7 74 -8 131 -51 190 -63 87
-193 129 -297 95z"/>
<path d="M1617 2549 c-155 -38 -243 -199 -192 -350 45 -131 191 -205 326 -166
235 69 258 399 34 498 -52 23 -120 30 -168 18z"/>
<path d="M3447 2260 c-89 -23 -169 -86 -209 -169 -34 -69 -32 -187 4 -257 35
-66 106 -128 170 -150 74 -24 181 -16 241 19 175 103 208 329 70 472 -67 69
-189 106 -276 85z"/>
<path d="M4363 2204 c-57 -21 -129 -86 -161 -148 -22 -43 -27 -64 -27 -131 0
-67 5 -88 27 -131 55 -105 156 -160 277 -152 111 8 193 63 242 163 96 195 -38
416 -251 414 -36 0 -84 -7 -107 -15z"/>
<path d="M2115 1691 c-50 -22 -99 -71 -126 -122 -84 -165 44 -369 231 -369
100 0 198 66 238 159 21 50 20 137 -1 193 -22 58 -98 129 -155 146 -57 17
-141 14 -187 -7z"/>
<path d="M2981 1167 c-48 -19 -108 -72 -133 -120 -31 -58 -31 -165 -1 -223 47
-89 141 -141 241 -131 70 6 109 24 156 73 106 109 82 298 -48 378 -39 25 -61
31 -115 33 -36 1 -81 -3 -100 -10z"/>
<path d="M4065 1041 c-77 -35 -135 -122 -135 -205 0 -130 126 -240 255 -223
220 31 269 332 70 426 -56 26 -135 27 -190 2z"/>
</g>
</svg>
